<svg width="32" height="32" viewBox="0 0 32 32" fill="none" xmlns="http://www.w3.org/2000/svg">
<path fill-rule="evenodd" clip-rule="evenodd" d="M26.9619 17.4172C27.004 16.8908 26.5719 16.4619 26.0437 16.4619C25.5156 16.4619 25.0922 16.8911 25.0422 17.4168C24.8635 19.2962 24.16 21.0949 23.0029 22.6028C21.6511 24.3645 19.7558 25.6309 17.6108 26.2057C15.4659 26.7804 13.1913 26.6313 11.1397 25.7815C9.08816 24.9317 7.37433 23.4287 6.26403 21.5057C5.15373 19.5826 4.70902 17.3469 4.99887 15.1453C5.28871 12.9437 6.29692 10.8992 7.86711 9.32903C9.43731 7.75883 11.4817 6.75063 13.6833 6.46078C15.5678 6.21269 17.4772 6.50275 19.1941 7.28772C19.6745 7.50731 20.2578 7.35516 20.5219 6.89778C20.7859 6.4404 20.6306 5.85177 20.1537 5.62495C18.0691 4.63355 15.7357 4.26153 13.4337 4.56459C10.8147 4.90939 8.38264 6.10875 6.51473 7.97665C4.64683 9.84455 3.44748 12.2766 3.10268 14.8956C2.75788 17.5146 3.28691 20.1742 4.60771 22.4619C5.92852 24.7496 7.96729 26.5376 10.4078 27.5485C12.8483 28.5594 15.5542 28.7367 18.1058 28.053C20.6574 27.3693 22.9121 25.8628 24.5203 23.7671C25.9337 21.925 26.7782 19.7183 26.9619 17.4172ZM14.9677 21.8854C14.5348 21.9515 14.2981 21.888 13.9968 21.8073C12.9446 21.5254 12.678 21.1518 12.5289 20.9429C12.5118 20.919 12.4962 20.8972 12.4812 20.8779C11.5452 19.4213 10.5955 16.9826 10.4155 16.3201C10.3924 16.2343 10.4107 16.0799 10.4192 16.0481C10.4227 16.0351 10.4261 16.0223 10.4295 16.0097C10.5387 15.6007 10.5923 15.4004 11.0201 15.1398C11.3903 14.9204 12.0485 14.9603 12.1561 14.9891C12.3133 15.0204 12.4449 15.1072 12.4818 15.1316C12.4835 15.1327 12.485 15.1336 12.4863 15.1345C13.6465 16.1848 14.7125 18.4043 14.7125 18.4043C14.7125 18.4043 14.8518 18.4871 14.8955 18.4533C15.4753 17.9452 16.1673 17.2854 16.937 16.5517C20.4689 13.1844 25.6345 8.25969 29.0811 9.28595C29.7806 9.47336 29.7208 9.69625 29.7208 9.69625C29.7208 9.69625 29.7095 9.73871 29.6658 9.77251C29.6357 9.79859 29.5949 9.82178 29.557 9.83435C25.9664 11.1487 21.6632 15.5223 18.6123 18.6231C16.8606 20.4035 15.5218 21.7642 14.9677 21.8854Z" fill="#4DB000"/>
</svg>
