<svg width="32" height="32" viewBox="0 0 32 32" fill="none" xmlns="http://www.w3.org/2000/svg">
<path opacity="0.2" d="M27.9925 21.76C27.7983 23.2113 27.0836 24.5427 25.9813 25.5065C24.8791 26.4704 23.4642 27.0011 22 27C17.4913 27 13.1673 25.2089 9.97919 22.0208C6.79107 18.8327 5 14.5087 5 10C4.99888 8.53575 5.5296 7.12094 6.49345 6.01867C7.45731 4.91639 8.78869 4.2017 10.24 4.0075C10.4545 3.98201 10.6716 4.02669 10.8586 4.13485C11.0456 4.24301 11.1926 4.40883 11.2775 4.6075L13.9188 10.5075C13.9836 10.659 14.0101 10.8243 13.9957 10.9885C13.9813 11.1527 13.9265 11.3108 13.8363 11.4487L11.165 14.625C11.0702 14.768 11.0142 14.9331 11.0024 15.1042C10.9906 15.2753 11.0233 15.4466 11.0975 15.6012C12.1313 17.7175 14.3188 19.8787 16.4413 20.9025C16.5967 20.9764 16.7688 21.0084 16.9404 20.9955C17.112 20.9825 17.2773 20.9251 17.42 20.8288L20.545 18.1663C20.6835 18.0741 20.8428 18.0179 21.0084 18.0029C21.1741 17.9878 21.3409 18.0143 21.4937 18.08L27.3888 20.7213C27.5883 20.8056 27.7551 20.9525 27.864 21.1398C27.9729 21.3272 28.018 21.5448 27.9925 21.76Z" fill="#414084"/>
<path d="M27.7963 19.8075L21.9075 17.1687L21.8913 17.1612C21.5856 17.0305 21.2521 16.978 20.921 17.0086C20.5899 17.0391 20.2716 17.1518 19.995 17.3362C19.9624 17.3578 19.9311 17.3811 19.9013 17.4062L16.8588 20C14.9313 19.0637 12.9413 17.0887 12.005 15.1862L14.6025 12.0975C14.6275 12.0662 14.6513 12.035 14.6738 12.0012C14.8543 11.7254 14.9638 11.4092 14.9926 11.0807C15.0214 10.7523 14.9686 10.4218 14.8388 10.1187V10.1037L12.1925 4.205C12.0209 3.80908 11.7259 3.47927 11.3515 3.2648C10.9771 3.05033 10.5433 2.9627 10.115 3.015C8.42122 3.23788 6.86649 4.06971 5.74118 5.35512C4.61587 6.64053 3.99695 8.29161 4.00001 10C4.00001 19.925 12.075 28 22 28C23.7084 28.0031 25.3595 27.3841 26.6449 26.2588C27.9303 25.1335 28.7621 23.5788 28.985 21.885C29.0374 21.4568 28.95 21.0232 28.7357 20.6488C28.5215 20.2744 28.1919 19.9793 27.7963 19.8075ZM22 26C17.758 25.9954 13.691 24.3082 10.6914 21.3086C7.69184 18.309 6.00464 14.242 6.00001 10C5.99531 8.77936 6.43507 7.59874 7.23718 6.67863C8.03929 5.75852 9.14889 5.16183 10.3588 5C10.3583 5.00499 10.3583 5.01001 10.3588 5.015L12.9838 10.89L10.4 13.9825C10.3738 14.0127 10.35 14.0449 10.3288 14.0787C10.1407 14.3674 10.0303 14.6997 10.0084 15.0436C9.9865 15.3874 10.0538 15.7311 10.2038 16.0412C11.3363 18.3575 13.67 20.6737 16.0113 21.805C16.3237 21.9536 16.6694 22.0185 17.0144 21.9935C17.3595 21.9686 17.6922 21.8545 17.98 21.6625C18.0121 21.6409 18.043 21.6175 18.0725 21.5925L21.1113 19L26.9863 21.6312C26.9863 21.6312 26.9963 21.6312 27 21.6312C26.8402 22.8428 26.2444 23.9547 25.3241 24.7588C24.4038 25.5629 23.2221 26.0041 22 26Z" fill="#414084"/>
</svg>
