<svg width="32" height="32" viewBox="0 0 32 32" fill="none" xmlns="http://www.w3.org/2000/svg">
<path d="M27.4592 10.4103C27.4566 9.68177 27.2509 8.96839 26.8653 8.35029C26.4797 7.7322 25.9293 7.23389 25.2761 6.91133L17.9193 3.38246C17.3969 3.13073 16.8244 3 16.2445 3C15.6646 3 15.0922 3.13073 14.5698 3.38246L7.21302 6.91133C6.55419 7.2297 5.99769 7.7262 5.60656 8.34461C5.21543 8.96302 5.00531 9.6786 5 10.4103V14.8662C5 22.7913 8.7083 27.8453 15.9754 29.8789H16.4539C23.721 27.8453 27.4293 22.8212 27.4293 14.8962C27.4592 13.4906 27.4592 11.7261 27.4592 10.4103ZM25.6648 14.8662C25.6648 21.8941 22.5845 26.2304 16.2445 28.0846C9.90453 26.2304 6.82425 21.8941 6.82425 14.8662V10.4103C6.82563 10.0154 6.93869 9.62895 7.15036 9.29557C7.36203 8.96219 7.66368 8.69548 8.02047 8.52624L15.3474 4.99737C15.6278 4.86437 15.9342 4.79537 16.2445 4.79537C16.5549 4.79537 16.8613 4.86437 17.1417 4.99737L24.4985 8.52624C24.8553 8.69548 25.1569 8.96219 25.3686 9.29557C25.5803 9.62895 25.6933 10.0154 25.6947 10.4103C25.6648 11.7261 25.6648 13.4906 25.6648 14.8662Z" fill="#4DB000"/>
<path d="M16.2002 18C15.9288 18 15.7002 18.1778 15.7002 18.3889V19.6111C15.7002 19.8222 15.9288 20 16.2002 20C16.4716 20 16.7002 19.8222 16.7002 19.6111V18.3889C16.7002 18.1667 16.4716 18 16.2002 18Z" fill="#4DB000"/>
<path d="M13.038 12.6283V14.6184C12.2961 14.6546 11.7002 15.2577 11.7002 16.0055V20.6129C11.7002 21.3728 12.3326 22 13.0988 22H19.3015C20.0678 22 20.7002 21.3728 20.7002 20.6129V16.0055C20.7002 15.2577 20.1042 14.6546 19.3624 14.6184V12.6283C19.3624 11.7357 18.6205 11 17.7205 11H14.6799C13.7799 11 13.038 11.7237 13.038 12.6283ZM19.8488 16.0055V20.6129C19.8488 20.9145 19.6056 21.1557 19.3015 21.1557H13.0988C12.7948 21.1557 12.5515 20.9145 12.5515 20.6129V16.0055C12.5515 15.7039 12.7948 15.4627 13.0988 15.4627H19.3015C19.6056 15.4627 19.8488 15.7039 19.8488 16.0055ZM18.511 12.6283V14.6184H13.8894V12.6283C13.8894 12.1941 14.2421 11.8443 14.6799 11.8443H17.7205C18.1583 11.8443 18.511 12.1941 18.511 12.6283Z" fill="#4DB000" stroke="#4DB000" stroke-width="0.7"/>
</svg>
